<svg version="1.2" xmlns="http://www.w3.org/2000/svg" viewBox="0 0 375 376" width="375" height="375">
	<title>icon-svg</title>
	<style>
		.s0 { fill: #6635b0 } 
	</style>
	<path id="T" class="s0" aria-label="T"  d="m205.7 79.7v215.7q0 9.2 2.5 14.7 2.7 5.6 6.9 8.7 4.4 2.8 10.4 3.8 5.9 0.9 12.4 0.9h9v16.5h-121.9v-16.5h9q6.5 0 12.2-0.7 6-1 10.4-3.7 4.4-2.6 6.8-7.8 2.7-5.4 2.7-14v-217.6h-37.5q-8.6 0-14.5 2.7-5.8 2.5-9.6 6.9-3.6 4.4-5.6 10.3-1.7 5.7-2.4 12.2l-2.2 16.9h-20.2l1.9-68.5h220.7l1.9 68.5h-20.3l-1.9-16.9q-0.8-6.5-2.7-12.2-1.9-5.9-5.6-10.3-3.6-4.4-9.5-6.9-6-2.7-14.8-2.7z"/>
</svg>